<svg xmlns="http://www.w3.org/2000/svg" version="1.0" preserveAspectRatio="xMidYMid meet" viewBox="54.91 74.23 198.77 157.61">  <g transform="translate(0.000000,310.000000) scale(0.100000,-0.100000)" fill="#000000" stroke="none"> <path d="M1182 2341 c-61 -21 -105 -60 -147 -129 l-29 -49 -79 1 c-76 1 -79 0 -107 -31 -32 -35 -50 -88 -50 -145 0 -35 -2 -38 -27 -38 -49 0 -98 -19 -127 -49 -26 -27 -28 -34 -24 -93 2 -35 14 -83 25 -108 l21 -45 -34 -38 c-77 -84 -73 -162 12 -237 l37 -32 -16 -47 c-10 -25 -17 -67 -17 -93 0 -39 6 -54 31 -83 17 -19 44 -43 59 -52 22 -13 29 -26 34 -65 5 -36 16 -59 39 -85 30 -32 38 -35 102 -40 60 -5 74 -10 99 -35 63 -62 149 -82 232 -54 87 29 86 29 85 163 l-2 118 -59 121 c-61 124 -79 181 -80 246 0 28 5 38 20 43 33 10 52 48 41 78 -5 14 -7 28 -3 33 4 4 1 4 -5 0 -7 -4 -13 -19 -13 -33 0 -14 -15 -42 -35 -65 -29 -34 -34 -47 -31 -79 5 -43 63 -206 83 -230 7 -8 13 -21 13 -27 0 -6 6 -17 13 -24 25 -25 37 -81 37 -178 0 -130 -20 -151 -142 -146 -66 2 -110 23 -149 70 -12 14 -35 22 -81 26 -95 10 -118 31 -135 120 -5 29 -30 70 -42 70 -19 0 -69 64 -75 95 -4 20 0 51 9 77 22 65 19 82 -25 130 -22 23 -46 59 -52 80 -10 34 -8 40 31 98 44 67 50 98 25 145 -9 17 -17 54 -18 83 -1 47 2 57 27 77 15 13 44 27 65 31 64 11 78 26 86 90 12 104 53 141 148 132 57 -6 78 6 105 56 43 81 142 145 224 144 24 0 70 -11 103 -25 67 -28 83 -25 31 6 -73 43 -151 50 -233 22z"/> <path d="M1625 2349 c-16 -5 -43 -20 -60 -34 -29 -25 -29 -25 -2 -9 15 9 27 12 27 8 0 -5 5 -2 10 6 6 10 26 15 62 14 51 0 89 -16 128 -54 9 -8 32 -24 53 -35 31 -16 41 -18 57 -7 11 6 44 12 73 12 76 0 117 -36 147 -130 25 -78 41 -94 105 -106 56 -10 116 -46 143 -84 24 -36 30 -126 13 -188 -13 -45 -1 -74 54 -128 76 -73 86 -141 34 -215 -17 -24 -37 -48 -43 -54 -36 -30 -47 -63 -41 -122 9 -75 -9 -101 -80 -114 -44 -8 -57 -17 -105 -70 -51 -56 -58 -61 -90 -57 -19 3 -52 12 -72 21 -56 25 -74 22 -88 -15 -36 -98 -60 -136 -91 -147 -43 -15 -83 -14 -122 2 -26 11 -34 23 -45 61 -18 68 -16 139 6 158 70 64 132 130 132 142 0 8 4 16 8 18 14 5 52 156 57 222 6 70 1 80 -54 112 -22 13 -31 28 -36 58 l-7 41 -10 -28 c-18 -50 1 -74 89 -112 8 -4 -21 -174 -38 -229 -22 -74 -77 -150 -139 -192 l-41 -29 4 -75 c5 -75 13 -125 24 -143 11 -18 74 -37 125 -37 45 0 59 5 90 30 36 29 42 43 74 159 4 11 9 10 27 -3 38 -28 85 -46 122 -46 29 0 44 9 80 45 25 24 45 51 45 59 0 17 22 26 66 26 48 0 92 25 100 56 4 14 4 54 0 89 -6 61 -5 64 22 87 44 36 80 89 93 140 18 64 -5 119 -78 192 -51 50 -55 58 -46 79 19 41 26 130 14 175 -20 74 -100 132 -204 147 -27 4 -50 13 -52 19 -21 82 -41 131 -62 157 -49 57 -121 73 -203 44 l-42 -15 -50 45 c-65 58 -117 74 -183 54z" stroke-width="100"/> <path d="M1473 1719 c-15 -15 -75 -19 -91 -6 -7 5 -15 7 -18 4 -7 -7 49 -37 69 -37 18 0 64 36 56 44 -3 3 -10 1 -16 -5z" stroke-width="100"/> <path d="M1544 1711 c-2 -2 -1 -8 2 -12 8 -13 38 -11 57 4 15 10 13 12 -19 12 -19 0 -37 -2 -40 -4z" stroke-width="100"/> <path d="M1650 1690 c0 -36 74 -63 110 -40 11 7 5 10 -23 10 -25 0 -43 7 -54 20 -19 22 -33 26 -33 10z" stroke-width="100"/> <path d="M1316 1658 c-17 -34 -22 -38 -58 -38 -39 0 -45 -13 -9 -23 28 -7 80 22 87 49 11 42 -2 50 -20 12z" stroke-width="100"/> </g> </svg>