<svg version="1.1" xmlns="http://www.w3.org/2000/svg" style="" viewBox="42.23 95.47 422.38 32.27"><path fill="#000000" d="M57.03515625,121.5859375l-14.80078125,0l0-25.69921875l14.80078125,0l0,4.46484375l-9.3515625,0l0,5.642578125l8.701171875,0l0,4.46484375l-8.701171875,0l0,6.626953125l9.3515625,0l0,4.5z M85.64830078125,121.5859375l-6.22265625,0l-5.9765625-9.720703125l-5.9765625,9.720703125l-5.8359375,0l8.525390625-13.25390625l-7.98046875-12.4453125l6.01171875,0l5.537109375,9.24609375l5.431640625-9.24609375l5.87109375,0l-8.068359375,12.744140625z M114.6833203125,108.701171875q0,4.53515625-1.6083984375,7.6025390625t-4.7197265625,4.4912109375l6.1875,6.908203125l-6.978515625,0l-4.7109375-5.765625l-0.404296875,0q-5.90625,0-9.0703125-3.427734375t-3.1640625-9.84375t3.1728515625-9.7998046875t9.0966796875-3.3837890625t9.0615234375,3.41015625t3.1376953125,9.80859375z M95.9274609375,108.701171875q0,4.306640625,1.634765625,6.486328125t4.88671875,2.1796875q6.521484375,0,6.521484375-8.666015625q0-8.68359375-6.486328125-8.68359375q-3.251953125,0-4.904296875,2.1884765625t-1.65234375,6.4951171875z M143.40193359375,95.88671875l0,16.62890625q0,2.84765625-1.2744140625,4.9921875t-3.6826171875,3.287109375t-5.6953125,1.142578125q-4.95703125,0-7.69921875-2.5400390625t-2.7421875-6.9521484375l0-16.55859375l5.431640625,0l0,15.732421875q0,2.970703125,1.1953125,4.359375t3.955078125,1.388671875q2.671875,0,3.8759765625-1.3974609375t1.2041015625-4.3857421875l0-15.697265625l5.431640625,0z M152.169375,121.5859375l0-25.69921875l5.44921875,0l0,25.69921875l-5.44921875,0z M181.73173828125,114.44921875q0,3.48046875-2.5048828125,5.484375t-6.9697265625,2.00390625q-4.11328125,0-7.27734375-1.546875l0-5.0625q2.6015625,1.16015625,4.4033203125,1.634765625t3.2958984375,0.474609375q1.79296875,0,2.7509765625-0.685546875t0.9580078125-2.0390625q0-0.755859375-0.421875-1.3447265625t-1.2392578125-1.1337890625t-3.3310546875-1.740234375q-2.35546875-1.107421875-3.533203125-2.126953125t-1.880859375-2.373046875t-0.703125-3.1640625q0-3.41015625,2.3115234375-5.361328125t6.3896484375-1.951171875q2.00390625,0,3.8232421875,0.474609375t3.8056640625,1.3359375l-1.7578125,4.236328125q-2.056640625-0.84375-3.4013671875-1.177734375t-2.6455078125-0.333984375q-1.546875,0-2.373046875,0.720703125t-0.826171875,1.880859375q0,0.720703125,0.333984375,1.2568359375t1.0634765625,1.037109375t3.4541015625,1.8017578125q3.603515625,1.72265625,4.939453125,3.4541015625t1.3359375,4.2451171875z M188.8644140625,121.5859375l0-25.69921875l5.44921875,0l0,25.69921875l-5.44921875,0z M213.17091796875,121.5859375l-5.44921875,0l0-21.1640625l-6.978515625,0l0-4.53515625l19.40625,0l0,4.53515625l-6.978515625,0l0,21.1640625z M241.379765625,121.5859375l-14.80078125,0l0-25.69921875l14.80078125,0l0,4.46484375l-9.3515625,0l0,5.642578125l8.701171875,0l0,4.46484375l-8.701171875,0l0,6.626953125l9.3515625,0l0,4.5z M282.1001953125,121.5859375l-5.431640625,0l0-11.091796875l-10.177734375,0l0,11.091796875l-5.44921875,0l0-25.69921875l5.44921875,0l0,10.072265625l10.177734375,0l0-10.072265625l5.431640625,0l0,25.69921875z M306.79341796875,121.5859375l-1.86328125-6.1171875l-9.369140625,0l-1.86328125,6.1171875l-5.87109375,0l9.0703125-25.8046875l6.662109375,0l9.10546875,25.8046875l-5.87109375,0z M303.62935546875,110.8984375q-2.583984375-8.314453125-2.9091796875-9.404296875t-0.4658203125-1.72265625q-0.580078125,2.25-3.322265625,11.126953125l6.697265625,0z M318.373359375,121.5859375l0-25.69921875l5.44921875,0l0,25.69921875l-5.44921875,0z M338.21501953125,107.294921875l1.7578125,0q2.583984375,0,3.814453125-0.861328125t1.23046875-2.70703125q0-1.828125-1.2568359375-2.6015625t-3.8935546875-0.7734375l-1.65234375,0l0,6.943359375z M338.21501953125,111.724609375l0,9.861328125l-5.44921875,0l0-25.69921875l7.48828125,0q5.23828125,0,7.751953125,1.9072265625t2.513671875,5.7919921875q0,2.267578125-1.248046875,4.0341796875t-3.533203125,2.7685546875q5.80078125,8.666015625,7.55859375,11.197265625l-6.046875,0l-6.134765625-9.861328125l-2.900390625,0z M381.74794921875,100.052734375q-3.076171875,0-4.763671875,2.3115234375t-1.6875,6.4423828125q0,8.595703125,6.451171875,8.595703125q2.70703125,0,6.556640625-1.353515625l0,4.5703125q-3.1640625,1.318359375-7.06640625,1.318359375q-5.607421875,0-8.578125-3.4013671875t-2.970703125-9.7646484375q0-4.0078125,1.458984375-7.0224609375t4.1923828125-4.623046875t6.4072265625-1.6083984375q3.744140625,0,7.5234375,1.810546875l-1.7578125,4.4296875q-1.44140625-0.685546875-2.900390625-1.1953125t-2.865234375-0.509765625z M411.97828125,121.5859375l-1.86328125-6.1171875l-9.369140625,0l-1.86328125,6.1171875l-5.87109375,0l9.0703125-25.8046875l6.662109375,0l9.10546875,25.8046875l-5.87109375,0z M408.81421875,110.8984375q-2.583984375-8.314453125-2.9091796875-9.404296875t-0.4658203125-1.72265625q-0.580078125,2.25-3.322265625,11.126953125l6.697265625,0z M429.00744140625,107.294921875l1.7578125,0q2.583984375,0,3.814453125-0.861328125t1.23046875-2.70703125q0-1.828125-1.2568359375-2.6015625t-3.8935546875-0.7734375l-1.65234375,0l0,6.943359375z M429.00744140625,111.724609375l0,9.861328125l-5.44921875,0l0-25.69921875l7.48828125,0q5.23828125,0,7.751953125,1.9072265625t2.513671875,5.7919921875q0,2.267578125-1.248046875,4.0341796875t-3.533203125,2.7685546875q5.80078125,8.666015625,7.55859375,11.197265625l-6.046875,0l-6.134765625-9.861328125l-2.900390625,0z M464.5991015625,121.5859375l-14.80078125,0l0-25.69921875l14.80078125,0l0,4.46484375l-9.3515625,0l0,5.642578125l8.701171875,0l0,4.46484375l-8.701171875,0l0,6.626953125l9.3515625,0l0,4.5z"/><path fill="#" d=""/></svg>